<mxfile host="65bd71144e" modified="2020-12-15T07:49:38.422Z" agent="5.0 (Macintosh; Intel Mac OS X 10_15_7) AppleWebKit/537.36 (KHTML, like Gecko) Code/1.52.0 Chrome/83.0.4103.122 Electron/9.3.5 Safari/537.36" etag="ZyTo6BE6bJaIxFOu0xj_" version="13.10.0" type="embed">
    <diagram id="YuiwEZgw_dyTgMcXd5ze" name="Page-1">
        <mxGraphModel dx="1088" dy="579" grid="1" gridSize="10" guides="1" tooltips="1" connect="1" arrows="1" fold="1" page="1" pageScale="1" pageWidth="850" pageHeight="1100" math="0" shadow="0">
            <root>
                <mxCell id="0"/>
                <mxCell id="1" parent="0"/>
                <mxCell id="2" value="&amp;nbsp; &amp;nbsp; &amp;nbsp; &amp;nbsp; &amp;nbsp;&lt;b&gt;&lt;font style=&quot;font-size: 18px&quot;&gt;users&lt;/font&gt;&lt;/b&gt;&lt;br&gt;&lt;ul&gt;&lt;li&gt;nickname&lt;/li&gt;&lt;li&gt;email&lt;/li&gt;&lt;li&gt;password&lt;/li&gt;&lt;li&gt;last_name&lt;/li&gt;&lt;li&gt;first_name&lt;/li&gt;&lt;li&gt;last_name_kana&lt;/li&gt;&lt;li&gt;first_name_kana&lt;/li&gt;&lt;li&gt;birthday&lt;/li&gt;&lt;/ul&gt;" style="rounded=1;whiteSpace=wrap;html=1;align=left;" parent="1" vertex="1">
                    <mxGeometry x="-710" y="50" width="280" height="220" as="geometry"/>
                </mxCell>
                <mxCell id="3" value="&amp;nbsp; &amp;nbsp; &amp;nbsp; &amp;nbsp; &lt;b&gt;&lt;font style=&quot;font-size: 18px&quot;&gt;items&lt;/font&gt;&lt;/b&gt;&lt;br&gt;&lt;ul&gt;&lt;li&gt;image&lt;/li&gt;&lt;li&gt;item_name&lt;/li&gt;&lt;li&gt;item_description&lt;/li&gt;&lt;li&gt;category&lt;/li&gt;&lt;li&gt;condition&lt;/li&gt;&lt;li&gt;shipping_charge&lt;/li&gt;&lt;li&gt;item_prefecture&lt;/li&gt;&lt;li&gt;dispatch_timing&lt;/li&gt;&lt;li&gt;user_id&lt;/li&gt;&lt;/ul&gt;" style="rounded=1;whiteSpace=wrap;html=1;align=left;" parent="1" vertex="1">
                    <mxGeometry x="-310" y="50" width="280" height="220" as="geometry"/>
                </mxCell>
                <mxCell id="4" value="&amp;nbsp; &amp;nbsp; &amp;nbsp; &amp;nbsp; &amp;nbsp; &amp;nbsp;&lt;b&gt;&lt;font style=&quot;font-size: 18px&quot;&gt;oders&lt;/font&gt;&lt;/b&gt;&lt;br&gt;&lt;ul&gt;&lt;li&gt;&lt;span&gt;card_no&lt;/span&gt;&lt;br&gt;&lt;/li&gt;&lt;li&gt;expiration_date&lt;/li&gt;&lt;li&gt;cvc&lt;/li&gt;&lt;li&gt;zip&lt;/li&gt;&lt;li&gt;prefecture&lt;/li&gt;&lt;li&gt;city&lt;/li&gt;&lt;li&gt;address&lt;/li&gt;&lt;li&gt;building&lt;/li&gt;&lt;li&gt;phone_no&lt;/li&gt;&lt;li&gt;user_id&lt;/li&gt;&lt;/ul&gt;" style="rounded=1;whiteSpace=wrap;html=1;align=left;" parent="1" vertex="1">
                    <mxGeometry x="-500" y="360" width="280" height="240" as="geometry"/>
                </mxCell>
                <mxCell id="15" value="" style="endArrow=ERmany;html=1;entryX=-0.007;entryY=0.441;entryDx=0;entryDy=0;entryPerimeter=0;exitX=1.007;exitY=0.445;exitDx=0;exitDy=0;exitPerimeter=0;endFill=0;startArrow=ERone;startFill=0;strokeWidth=2;endSize=13;startSize=13;" parent="1" source="2" target="3" edge="1">
                    <mxGeometry width="50" height="50" relative="1" as="geometry">
                        <mxPoint x="-420" y="330" as="sourcePoint"/>
                        <mxPoint x="-370" y="280" as="targetPoint"/>
                    </mxGeometry>
                </mxCell>
                <mxCell id="16" value="" style="endArrow=ERmany;html=1;exitX=0.604;exitY=1.009;exitDx=0;exitDy=0;endFill=0;startArrow=ERone;startFill=0;entryX=0.054;entryY=0.029;entryDx=0;entryDy=0;exitPerimeter=0;entryPerimeter=0;strokeWidth=2;endSize=13;startSize=13;" parent="1" source="2" target="4" edge="1">
                    <mxGeometry width="50" height="50" relative="1" as="geometry">
                        <mxPoint x="-418.03999999999996" y="157.89999999999998" as="sourcePoint"/>
                        <mxPoint x="-301.96000000000004" y="157.01999999999998" as="targetPoint"/>
                        <Array as="points"/>
                    </mxGeometry>
                </mxCell>
                <mxCell id="17" value="" style="endArrow=ERone;html=1;startArrow=ERone;startFill=0;endFill=0;entryX=0.5;entryY=1;entryDx=0;entryDy=0;strokeWidth=2;exitX=0.954;exitY=0.042;exitDx=0;exitDy=0;exitPerimeter=0;targetPerimeterSpacing=0;endSize=13;startSize=13;" parent="1" source="4" target="3" edge="1">
                    <mxGeometry width="50" height="50" relative="1" as="geometry">
                        <mxPoint x="-220" y="350" as="sourcePoint"/>
                        <mxPoint x="-370" y="280" as="targetPoint"/>
                    </mxGeometry>
                </mxCell>
                <mxCell id="18" style="edgeStyle=orthogonalEdgeStyle;rounded=0;orthogonalLoop=1;jettySize=auto;html=1;exitX=0.5;exitY=1;exitDx=0;exitDy=0;startArrow=ERone;startFill=0;endArrow=ERone;endFill=0;strokeWidth=3;" parent="1" source="3" target="3" edge="1">
                    <mxGeometry relative="1" as="geometry"/>
                </mxCell>
            </root>
        </mxGraphModel>
    </diagram>
</mxfile>